<?xml version="1.0" encoding="UTF-8"?>
<svg id="Layer_2" data-name="Layer 2" xmlns="http://www.w3.org/2000/svg" viewBox="0 0 1385.78 588.46">
  <g id="Layer_1-2" data-name="Layer 1">
    <g>
      <g>
        <path d="M4.01,383.35h15.38c21,0,23.33-6.73,23.33-67.34V141.57c0-60.61-2.33-67.34-23.33-67.34H4.01v-4.24H113.24c62.57,0,104.99,26.51,104.99,66.81,0,25.45-23.33,56.2-63.63,61.51v2.12c56.73,4.24,97.03,50.37,97.03,95.44,0,55.14-53.55,91.73-121.95,91.73H4.01v-4.24Zm86.96-3.71h30.75c54.61,0,91.73-33.4,91.73-83.78,0-53.02-39.77-91.2-94.38-91.2h-23.33v-7.95h17.5c38.71,0,67.34-24.39,67.34-59.39s-29.16-59.39-73.17-59.39h-36.06v.53c5.3,5.3,7.42,12.73,7.42,22.8V358.43c0,13.79,4.24,21.21,12.2,21.21Z"/>
        <path d="M270.19,383.35h15.38c21.21,0,23.86-6.36,23.86-66.81V42.42c0-8.48-4.77-13.26-13.26-13.26h-20.68v-3.71h25.45c18.03,0,39.77-5.83,39.77-23.86V0h3.18V316.55c0,60.45,2.65,66.81,23.86,66.81h15.91v4.24h-113.47v-4.24Z"/>
        <path d="M520.98,261.93h37.12v-72.11c0-38.18-18.56-57.79-52.49-57.79-43.48,0-65.75,25.98-67.87,60.45l-2.12,26.51h-7.95l4.77-91.73c3.68,.92,8.48,1.59,12.73,1.59,14.32,0,34.41-5.3,59.92-5.3,57.26,0,88.55,25.45,88.55,72.11v167.02c0,11.13,5.83,14.85,12.2,14.85,6.89,0,12.73-5.3,12.73-15.38v-6.89h4.24v6.89c0,15.22-12.59,27.57-28.1,27.57-13.23,0-24-11.41-24.92-25.98l-2.65-44.01h-4.24c-11.67,54.08-47.72,71.58-79.53,71.58-47.72,0-76.35-22.27-76.35-55.14,0-48.25,39.77-74.23,114-74.23Zm-32.34,117.18c32.34,0,69.46-27.04,69.46-91.2v-18.03h-34.99c-51.96,0-80.59,23.33-80.59,66.28,0,26.51,20.68,42.95,46.13,42.95Z"/>
        <path d="M641.88,383.35h15.38c21.21,0,23.33-6.36,23.33-67.34V153.24c0-10.98-5.95-15.76-12.22-15.76-6.96,0-12.7,5.9-12.7,15.76v16.44h-4.24v-16.44c0-18.3,14.32-27.57,29.69-27.57,13.79,0,27.04,7.55,27.04,23.33v19.09c0,6.89-.53,41.89-1.06,46.13h3.18c1.06-7.95,4.77-21.21,7.42-28.63,12.73-37.65,44.01-62.04,80.59-62.04,47.72,0,74.23,26.51,74.23,66.81v125.66c0,60.98,2.12,67.34,23.33,67.34h11.67v4.24h-108.17v-4.24h15.38c21.21,0,23.33-6.36,23.33-67.34v-113.47c0-43.48-12.73-66.81-43.48-66.81-45.07,0-79.53,40.83-79.53,103.39v76.88c0,60.98,2.65,67.34,23.86,67.34h15.91v4.24h-112.94v-4.24Z"/>
        <path d="M955.24,42.42c0-8.48-4.77-13.26-13.26-13.26h-20.68v-3.71h25.45c18.03,0,37.12-4.24,41.36-21.21l1.06-4.24h3.18l-2.65,75.82V245.5c15.91,0,24.92-1.06,29.16-6.36l50.37-57.26,16.44-21.74c4.71-6.21,7.52-12.07,7.52-16.85,0-7.07-6.13-11.78-21.3-11.78h-2.12v-4.24h97.56v4.24h-3.71c-18.56,0-43.48,11.13-63.63,31.28l-24.92,24.39-47.72,54.61v1.59c67.87,15.38,76.35,49.84,80.59,83.78,4.24,34.99,11.67,54.61,37.65,54.61,5.83,0,13.79-2.12,21.74-8.48l5.83-4.77,2.12,3.18-5.3,4.24c-12.87,10.29-24.92,16.44-36.06,16.44-42.42,0-55.67-28.1-63.63-72.64-5.83-34.46-13.26-70.52-74.76-70.52h-5.83v67.34c0,60.45,2.65,66.81,23.86,66.81h15.38v4.24h-112.41v-4.24h15.38c21.21,0,23.33-6.36,23.33-66.81V42.42Z"/>
        <path d="M1219.29,382.29c-5.3,0-11.67,1.59-15.38,2.65l-5.3-107.64h7.95l1.59,30.75c2.52,48.79,37.12,75.29,78.47,75.29s65.75-24.39,65.75-60.45c0-28.1-31.28-42.42-65.22-56.2-38.71-15.91-82.18-34.46-82.18-75.82s37.65-67.34,89.08-67.34c31.28,0,44.54,5.83,56.2,5.83,4.24,0,9.01-.53,14.85-2.12l4.24,91.73h-7.95l-1.06-18.03c-1.95-33.06-22.8-68.93-66.28-68.93-35,0-58.33,14.32-58.33,49.31,0,25.45,31.81,38.71,64.69,51.96,40.3,16.44,85.37,36.59,85.37,82.19s-39.77,75.82-99.15,75.82c-30.75,0-50.37-9.01-67.34-9.01Z"/>
      </g>
      <g>
        <path d="M39.56,501.59c6.8,0,13.05,2.04,18.35,2.04,1.63,0,3.4-.14,5.03-.54l.82,28.96h-2.04l-.27-9.79c-.31-11.19-11.69-18.76-22.84-18.76-17.13,0-28.55,15.09-28.55,37.66,0,27.06,15.25,40.51,30.32,40.51,10.98,0,20.47-4.91,24.74-14.28l1.9,.68c-4.49,11.29-15.36,16.86-27.33,16.86-23.79,0-39.7-16.86-39.7-42.01,0-22.84,17.67-41.33,39.56-41.33Z"/>
        <path d="M192.92,582.89h3.94c5.44,0,5.98-1.77,5.98-18.08v-44.05c0-15.5-.54-17.13-5.98-17.13h-3.94v-1.09h29.37v1.09h-4.08c-5.44,0-6.12,1.63-6.12,17.13v55.2c0,2.45-1.09,4.49-2.45,5.85v.14h15.36c10.88,0,18.08-2.18,19.03-13.05l.82-11.28h2.31l-1.77,25.29c-.82,.82-1.36,1.09-3.13,1.09h-49.35v-1.09Z"/>
        <path d="M374.15,543.19c0-22.98,17.95-41.6,40.24-41.6,24.06,0,40.24,16.59,40.24,41.6,0,22.98-18.08,41.74-40.24,41.74-24.2,0-40.24-16.72-40.24-41.74Zm70.56,2.18c0-22.98-13.73-41.74-30.73-41.74-17.95,0-30.05,15.09-30.05,37.52s13.87,41.74,30.86,41.74c17.95,0,29.91-14.96,29.91-37.52Z"/>
        <path d="M589.37,582.89h8.7c5.44,0,5.98-1.63,5.98-17.27v-61.04h-3.67c-9.79,0-17.27,2.04-18.08,13.05l-.41,4.62-2.04-.14,1.36-19.58h55.06l1.22,19.58-2.04,.14-.41-4.62c-.82-10.88-8.29-13.05-18.08-13.05h-3.67v61.04c0,15.64,.54,17.27,5.98,17.27h8.29v1.09h-38.2v-1.09Z"/>
        <path d="M762.17,582.89h3.94c5.38,0,5.98-1.71,5.98-17.13v-44.87c0-15.54-.6-17.27-5.98-17.27h-3.94v-1.09h28.28v1.09h-2.99c-5.51,0-6.12,1.73-6.12,17.27v19.17h31.13v-18.76c0-15.91-.61-17.67-6.12-17.67h-2.99v-1.09h28.41v1.09h-4.08c-5.38,0-5.98,1.77-5.98,17.67v44.32c0,15.54,.6,17.27,5.98,17.27h4.08v1.09h-28.41v-1.09h3.13c5.38,0,5.98-1.73,5.98-17.27v-23.52h-31.13v23.66c0,15.42,.61,17.13,6.12,17.13h2.99v1.09h-28.28v-1.09Z"/>
        <path d="M956.86,582.89h3.94c5.38,0,5.98-1.73,5.98-17.27v-45c0-15.29-.6-16.99-5.98-16.99h-3.94v-1.09h29.09v1.36h-3.94c-5.38,0-5.98,1.7-5.98,17v44.73c0,15.54,.6,17.27,5.98,17.27h3.94v1.09h-29.09v-1.09Z"/>
        <path d="M1111.03,582.89h2.31c4.35,0,6.66-2.85,6.66-17.27v-56.15c0-5.44-.68-5.85-6.12-5.85h-2.86v-1.09h17.54l31.68,57.1c1.22,2.17,2.04,3.81,2.04,4.21h.68c-.14-1.22-.14-2.86-.14-4.76v-36.16c0-14.14-1.77-19.31-6.66-19.31h-5.71v-1.09h23.79v1.09h-2.31c-4.89,0-6.8,2.99-6.8,19.31v62.68h-1.22c0-.54-1.63-3.67-3.26-6.53l-35.62-63.76c-1.22-2.04-2.31-4.35-2.31-4.49h-.54c.14,1.22,.14,2.99,.14,4.89v49.9c0,12.64,1.77,17.27,6.66,17.27h2.31v1.09h-20.26v-1.09Z"/>
        <path d="M1364.72,588.46v-7.88c-.14-2.86-2.17-5.57-4.62-5.57-1.09,0-2.18,.54-3.26,1.63-5.17,5.44-12.37,8.29-20.12,8.29-22.3,0-37.25-16.86-37.25-42.01,0-22.84,17.27-41.33,38.75-41.33,7.48,0,12.51,2.04,18.08,2.04,1.63,0,3.26-.27,4.89-.54l1.5,28.96h-2.04s-.41-7.61-.41-7.61c-.71-13.2-11.56-20.8-23.11-20.8-16.72,0-27.87,14.96-27.87,37.52s12.51,41.74,27.87,41.74c7.48-.14,14.68-3.13,19.31-9.38v-9.11c0-14.55-.95-16.18-10.47-16.18h-12.92v-2.04h33.72c-.95,3.13-1.09,6.39-1.09,11.28v31h-.95Z"/>
      </g>
    </g>
  </g>
</svg>