<svg width="28" height="28" viewBox="0 0 28 28" fill="none" xmlns="http://www.w3.org/2000/svg">
<rect width="28" height="28" rx="4" fill="#FF1E00"/>
<path d="M20.7764 11.81C20.7764 11.81 20.2961 17.6351 20.0175 20.0888C19.8848 21.2607 19.1444 21.9475 17.9317 21.9691C15.624 22.0097 13.3136 22.0123 11.0067 21.9648C9.83999 21.9414 9.11201 21.246 8.98199 20.0948C8.70159 17.6195 8.22394 11.81 8.22394 11.81M22 9.01764H7M19.1097 9.01764C18.4153 9.01764 17.8174 8.53762 17.6812 7.87251L17.4662 6.82079C17.3335 6.33558 16.8842 6 16.372 6H12.6278C12.1156 6 11.6663 6.33558 11.5336 6.82079L11.3187 7.87251C11.1825 8.53762 10.5845 9.01764 9.89014 9.01764" stroke="white" stroke-width="1.5" stroke-linecap="round" stroke-linejoin="round"/>
</svg>
